<?xml version="1.0" standalone="no"?>
<!DOCTYPE svg PUBLIC "-//W3C//DTD SVG 20010904//EN"
 "http://www.w3.org/TR/2001/REC-SVG-20010904/DTD/svg10.dtd">
<svg version="1.0" xmlns="http://www.w3.org/2000/svg"
 width="500.000000pt" height="500.000000pt" viewBox="0 0 500.000000 500.000000"
 preserveAspectRatio="xMidYMid meet">

<g transform="translate(0.000000,500.000000) scale(0.100000,-0.100000)"
fill="#000000" stroke="none">
<path d="M60 2250 l0 -531 98 3 97 3 5 299 5 300 139 -270 c76 -148 143 -275
149 -281 6 -9 38 -13 93 -13 l84 0 139 278 140 277 0 -167 1 -168 100 0 100 0
0 400 0 401 -101 -3 -101 -3 -77 -165 c-43 -91 -124 -265 -181 -388 -57 -122
-107 -219 -111 -215 -4 5 -91 179 -193 388 l-185 380 -101 3 -100 3 0 -531z"/>
<path d="M1676 2772 c-5 -9 -178 -451 -277 -711 -33 -85 -75 -193 -94 -241
-19 -48 -35 -90 -35 -94 0 -3 47 -6 104 -6 l103 0 56 163 c31 89 78 224 104
299 26 76 51 132 54 125 4 -7 49 -129 99 -272 51 -143 97 -272 102 -287 10
-28 10 -28 109 -28 75 0 99 3 99 13 0 7 -31 92 -69 188 -37 96 -128 328 -201
517 -73 188 -137 342 -141 342 -4 0 -10 -4 -13 -8z"/>
<path d="M2375 2767 c-86 -29 -153 -84 -193 -161 -23 -44 -27 -63 -27 -141 0
-81 3 -95 30 -144 16 -29 49 -69 74 -87 48 -37 152 -74 207 -74 48 0 110 -34
129 -70 26 -50 20 -97 -19 -136 -19 -19 -48 -37 -65 -40 l-31 -6 0 -94 c0
-107 -3 -104 88 -80 152 41 235 144 235 296 0 177 -116 294 -311 314 -103 10
-148 49 -146 125 2 74 54 121 134 121 63 0 106 -28 121 -80 l12 -40 94 0 93 0
0 28 c0 98 -70 202 -168 248 -68 33 -191 42 -257 21z"/>
<path d="M2842 2693 l3 -88 315 0 315 0 3 88 3 87 -321 0 -321 0 3 -87z"/>
<path d="M3515 2768 c-3 -7 -4 -245 -3 -528 l3 -515 253 -3 253 -2 -3 97 -3
98 -147 3 -147 3 -6 42 c-3 23 -4 76 -3 117 l3 75 215 5 215 5 0 90 0 90 -217
3 -218 2 0 120 0 120 155 0 155 0 0 95 0 95 -250 0 c-191 0 -252 -3 -255 -12z"/>
<path d="M4180 2686 l0 -96 200 0 c148 0 209 -4 234 -14 111 -46 98 -199 -19
-226 -22 -5 -124 -10 -227 -10 l-188 0 0 -310 0 -311 98 3 97 3 3 213 2 212
58 0 57 0 99 -215 99 -215 103 0 c62 0 104 4 104 10 0 5 -45 107 -100 226 -55
120 -100 220 -100 225 0 4 11 10 26 13 14 4 49 30 79 59 41 40 57 65 69 106
50 171 -18 335 -163 393 -51 20 -76 23 -293 26 l-238 4 0 -96z"/>
<path d="M3062 2063 l3 -338 98 -3 97 -3 0 341 0 340 -100 0 -100 0 2 -337z"/>
<path d="M1814 1471 c-51 -23 -68 -64 -48 -116 9 -22 70 -51 126 -59 77 -11
102 -55 48 -84 -39 -20 -106 -9 -140 23 l-28 27 -16 -23 c-18 -27 -10 -40 38
-63 79 -37 207 -10 222 48 16 65 -16 98 -116 122 -67 15 -90 28 -90 50 0 45
96 61 144 23 25 -20 29 -20 43 -6 14 14 14 18 2 33 -36 44 -118 55 -185 25z"/>
<path d="M3028 1481 c-103 -34 -152 -157 -95 -242 38 -56 81 -79 150 -79 111
0 182 65 181 167 -1 60 -33 112 -85 139 -37 19 -115 26 -151 15z m129 -61 c39
-24 56 -53 56 -100 0 -50 -27 -86 -77 -105 -112 -43 -214 62 -162 164 30 57
123 78 183 41z"/>
<path d="M1467 1473 c-7 -12 -137 -305 -137 -309 0 -2 11 -4 25 -4 20 0 28 8
41 40 l16 40 83 0 82 0 18 -40 c15 -33 23 -40 45 -40 l28 0 -71 160 c-66 151
-72 160 -98 160 -15 0 -30 -3 -32 -7z m83 -174 c0 -5 -25 -9 -56 -9 -41 0 -55
3 -51 13 3 6 15 38 28 69 l24 57 27 -61 c16 -33 28 -65 28 -69z"/>
<path d="M2130 1460 c0 -16 7 -20 35 -20 l35 0 0 -115 0 -115 -35 0 c-31 0
-35 -3 -35 -25 0 -25 0 -25 95 -25 95 0 95 0 95 25 0 22 -4 25 -35 25 l-36 0
3 113 3 112 33 3 c24 2 32 8 32 23 0 17 -8 19 -95 19 -88 0 -95 -1 -95 -20z"/>
<path d="M2450 1320 l0 -160 25 0 c24 0 24 0 27 117 l3 117 53 -72 c30 -40 60
-72 68 -72 8 0 37 33 66 72 l53 73 3 -118 c3 -117 3 -117 27 -117 l25 0 0 160
0 160 -27 0 c-23 -1 -38 -15 -87 -85 l-60 -85 -60 85 c-51 70 -66 84 -88 85
l-28 0 0 -160z"/>
<path d="M3370 1413 c109 -254 105 -248 136 -251 29 -3 31 0 94 149 36 84 67
156 68 160 2 5 -9 9 -25 9 -28 0 -32 -5 -68 -97 -21 -54 -45 -113 -53 -132
l-14 -35 -55 132 c-53 125 -57 132 -84 132 l-28 0 29 -67z"/>
</g>
</svg>
